<mxfile host="Electron" modified="2023-09-17T08:32:54.871Z" agent="Mozilla/5.0 (Windows NT 10.0; Win64; x64) AppleWebKit/537.36 (KHTML, like Gecko) draw.io/21.6.5 Chrome/114.0.5735.243 Electron/25.3.1 Safari/537.36" etag="SktZ3aBy6MH9XM-EdTS0" version="21.6.5" type="device">
  <diagram name="Страница — 1" id="wS0a-E_ivv_yOe_8BlFn">
    <mxGraphModel dx="1418" dy="828" grid="1" gridSize="10" guides="1" tooltips="1" connect="1" arrows="1" fold="1" page="1" pageScale="1" pageWidth="827" pageHeight="1169" math="0" shadow="0">
      <root>
        <mxCell id="0" />
        <mxCell id="1" parent="0" />
        <mxCell id="iGe3nFgzR7R-XXRQcmDe-5" value="Користувач" style="shape=umlActor;verticalLabelPosition=bottom;verticalAlign=top;html=1;outlineConnect=0;" parent="1" vertex="1">
          <mxGeometry x="160" y="430" width="30" height="60" as="geometry" />
        </mxCell>
        <mxCell id="iGe3nFgzR7R-XXRQcmDe-6" value="підтримувати зацікавленість в танцях" style="ellipse;whiteSpace=wrap;html=1;fontFamily=Times New Roman;" parent="1" vertex="1">
          <mxGeometry x="290" y="390" width="190" height="40" as="geometry" />
        </mxCell>
        <mxCell id="iGe3nFgzR7R-XXRQcmDe-7" value="підтримувати фінансову стабільність" style="ellipse;whiteSpace=wrap;html=1;fontFamily=Times New Roman;" parent="1" vertex="1">
          <mxGeometry x="288.75" y="450" width="192.5" height="50" as="geometry" />
        </mxCell>
        <mxCell id="iGe3nFgzR7R-XXRQcmDe-8" value="контролювати стан свого здоров&#39;я" style="ellipse;whiteSpace=wrap;html=1;fontFamily=Times New Roman;" parent="1" vertex="1">
          <mxGeometry x="290" y="520" width="195" height="50" as="geometry" />
        </mxCell>
        <mxCell id="iGe3nFgzR7R-XXRQcmDe-9" value="контролює стан повітря навколишнього середовища" style="ellipse;whiteSpace=wrap;html=1;fontFamily=Times New Roman;" parent="1" vertex="1">
          <mxGeometry x="540" y="490" width="220" height="60" as="geometry" />
        </mxCell>
        <mxCell id="iGe3nFgzR7R-XXRQcmDe-11" value="" style="endArrow=classic;html=1;rounded=0;exitX=0.045;exitY=0.25;exitDx=0;exitDy=0;exitPerimeter=0;entryX=1.015;entryY=0.6;entryDx=0;entryDy=0;entryPerimeter=0;dashed=1;" parent="1" source="iGe3nFgzR7R-XXRQcmDe-9" target="iGe3nFgzR7R-XXRQcmDe-8" edge="1">
          <mxGeometry width="50" height="50" relative="1" as="geometry">
            <mxPoint x="370" y="520" as="sourcePoint" />
            <mxPoint x="420" y="470" as="targetPoint" />
          </mxGeometry>
        </mxCell>
        <mxCell id="iGe3nFgzR7R-XXRQcmDe-12" value="include" style="text;html=1;align=center;verticalAlign=middle;resizable=0;points=[];autosize=1;strokeColor=none;fillColor=none;rotation=-45;" parent="1" vertex="1">
          <mxGeometry x="480" y="500" width="60" height="30" as="geometry" />
        </mxCell>
        <mxCell id="M6Eo8TPsQsGoYirGPoDh-26" value="" style="edgeStyle=orthogonalEdgeStyle;rounded=0;orthogonalLoop=1;jettySize=auto;html=1;" parent="1" source="iGe3nFgzR7R-XXRQcmDe-13" target="M6Eo8TPsQsGoYirGPoDh-15" edge="1">
          <mxGeometry relative="1" as="geometry">
            <Array as="points">
              <mxPoint x="780" y="340" />
              <mxPoint x="780" y="340" />
            </Array>
          </mxGeometry>
        </mxCell>
        <mxCell id="iGe3nFgzR7R-XXRQcmDe-13" value="хореограф" style="shape=umlActor;verticalLabelPosition=bottom;verticalAlign=top;html=1;outlineConnect=0;" parent="1" vertex="1">
          <mxGeometry x="797" y="300" width="30" height="60" as="geometry" />
        </mxCell>
        <mxCell id="iGe3nFgzR7R-XXRQcmDe-14" value="" style="endArrow=classic;html=1;rounded=0;entryX=0.029;entryY=0.643;entryDx=0;entryDy=0;entryPerimeter=0;" parent="1" source="iGe3nFgzR7R-XXRQcmDe-5" target="iGe3nFgzR7R-XXRQcmDe-6" edge="1">
          <mxGeometry width="50" height="50" relative="1" as="geometry">
            <mxPoint x="370" y="520" as="sourcePoint" />
            <mxPoint x="420" y="470" as="targetPoint" />
          </mxGeometry>
        </mxCell>
        <mxCell id="iGe3nFgzR7R-XXRQcmDe-15" value="" style="endArrow=classic;html=1;rounded=0;entryX=0;entryY=0.5;entryDx=0;entryDy=0;" parent="1" source="iGe3nFgzR7R-XXRQcmDe-5" target="iGe3nFgzR7R-XXRQcmDe-7" edge="1">
          <mxGeometry width="50" height="50" relative="1" as="geometry">
            <mxPoint x="210" y="520" as="sourcePoint" />
            <mxPoint x="260" y="470" as="targetPoint" />
          </mxGeometry>
        </mxCell>
        <mxCell id="iGe3nFgzR7R-XXRQcmDe-16" value="" style="endArrow=classic;html=1;rounded=0;entryX=0.013;entryY=0.417;entryDx=0;entryDy=0;entryPerimeter=0;" parent="1" source="iGe3nFgzR7R-XXRQcmDe-5" target="iGe3nFgzR7R-XXRQcmDe-8" edge="1">
          <mxGeometry width="50" height="50" relative="1" as="geometry">
            <mxPoint x="370" y="520" as="sourcePoint" />
            <mxPoint x="420" y="470" as="targetPoint" />
          </mxGeometry>
        </mxCell>
        <mxCell id="iGe3nFgzR7R-XXRQcmDe-17" value="надіслати запит на поради щодо танців" style="ellipse;whiteSpace=wrap;html=1;fontFamily=Times New Roman;" parent="1" vertex="1">
          <mxGeometry x="288.75" y="300" width="191.25" height="50" as="geometry" />
        </mxCell>
        <mxCell id="iGe3nFgzR7R-XXRQcmDe-23" value="надіслати запит на поради щодо&amp;nbsp; здоров&#39;я" style="ellipse;whiteSpace=wrap;html=1;fontFamily=Times New Roman;" parent="1" vertex="1">
          <mxGeometry x="254" y="595" width="220" height="60" as="geometry" />
        </mxCell>
        <mxCell id="iGe3nFgzR7R-XXRQcmDe-24" value="include" style="text;html=1;align=center;verticalAlign=middle;resizable=0;points=[];autosize=1;strokeColor=none;fillColor=none;rotation=0;" parent="1" vertex="1">
          <mxGeometry x="497.5" y="450" width="60" height="30" as="geometry" />
        </mxCell>
        <mxCell id="iGe3nFgzR7R-XXRQcmDe-27" value="" style="endArrow=classic;html=1;rounded=0;exitX=0;exitY=0;exitDx=0;exitDy=0;entryX=0.988;entryY=0.64;entryDx=0;entryDy=0;entryPerimeter=0;dashed=1;" parent="1" source="iGe3nFgzR7R-XXRQcmDe-9" target="iGe3nFgzR7R-XXRQcmDe-7" edge="1">
          <mxGeometry width="50" height="50" relative="1" as="geometry">
            <mxPoint x="450" y="520" as="sourcePoint" />
            <mxPoint x="500" y="470" as="targetPoint" />
            <Array as="points" />
          </mxGeometry>
        </mxCell>
        <mxCell id="iGe3nFgzR7R-XXRQcmDe-28" value="include" style="text;html=1;align=center;verticalAlign=middle;resizable=0;points=[];autosize=1;strokeColor=none;fillColor=none;rotation=33;" parent="1" vertex="1">
          <mxGeometry x="400" y="570" width="60" height="30" as="geometry" />
        </mxCell>
        <mxCell id="iGe3nFgzR7R-XXRQcmDe-31" value="" style="endArrow=block;html=1;rounded=0;endFill=0;" parent="1" source="iGe3nFgzR7R-XXRQcmDe-13" target="iGe3nFgzR7R-XXRQcmDe-5" edge="1">
          <mxGeometry width="50" height="50" relative="1" as="geometry">
            <mxPoint x="450" y="500" as="sourcePoint" />
            <mxPoint x="160" y="630" as="targetPoint" />
            <Array as="points">
              <mxPoint x="810" y="630" />
              <mxPoint x="810" y="740" />
              <mxPoint x="700" y="740" />
              <mxPoint x="490" y="740" />
              <mxPoint x="310" y="740" />
              <mxPoint x="100" y="740" />
              <mxPoint x="100" y="600" />
              <mxPoint x="100" y="510" />
              <mxPoint x="100" y="460" />
            </Array>
          </mxGeometry>
        </mxCell>
        <mxCell id="lKts8aZJJUEc3eBl2lUq-2" value="" style="swimlane;startSize=0;" parent="1" vertex="1">
          <mxGeometry x="220" y="280" width="550" height="410" as="geometry" />
        </mxCell>
        <mxCell id="M6Eo8TPsQsGoYirGPoDh-1" value="" style="endArrow=classic;html=1;rounded=0;entryX=0;entryY=0.5;entryDx=0;entryDy=0;exitX=0.75;exitY=0.1;exitDx=0;exitDy=0;exitPerimeter=0;" parent="1" source="iGe3nFgzR7R-XXRQcmDe-5" target="iGe3nFgzR7R-XXRQcmDe-17" edge="1">
          <mxGeometry width="50" height="50" relative="1" as="geometry">
            <mxPoint x="200" y="464" as="sourcePoint" />
            <mxPoint x="306" y="426" as="targetPoint" />
          </mxGeometry>
        </mxCell>
        <mxCell id="M6Eo8TPsQsGoYirGPoDh-3" value="" style="endArrow=classic;html=1;rounded=0;exitX=0.895;exitY=0.84;exitDx=0;exitDy=0;entryX=1;entryY=0;entryDx=0;entryDy=0;dashed=1;exitPerimeter=0;" parent="1" source="iGe3nFgzR7R-XXRQcmDe-17" target="iGe3nFgzR7R-XXRQcmDe-6" edge="1">
          <mxGeometry width="50" height="50" relative="1" as="geometry">
            <mxPoint x="550" y="517" as="sourcePoint" />
            <mxPoint x="492" y="551" as="targetPoint" />
          </mxGeometry>
        </mxCell>
        <mxCell id="M6Eo8TPsQsGoYirGPoDh-4" value="include" style="text;html=1;align=center;verticalAlign=middle;resizable=0;points=[];autosize=1;strokeColor=none;fillColor=none;rotation=-50;" parent="1" vertex="1">
          <mxGeometry x="410" y="350" width="60" height="30" as="geometry" />
        </mxCell>
        <mxCell id="M6Eo8TPsQsGoYirGPoDh-12" style="edgeStyle=orthogonalEdgeStyle;rounded=0;orthogonalLoop=1;jettySize=auto;html=1;endArrow=block;endFill=0;" parent="1" source="M6Eo8TPsQsGoYirGPoDh-6" target="iGe3nFgzR7R-XXRQcmDe-5" edge="1">
          <mxGeometry relative="1" as="geometry">
            <Array as="points">
              <mxPoint x="795" y="710" />
              <mxPoint x="175" y="710" />
            </Array>
          </mxGeometry>
        </mxCell>
        <mxCell id="M6Eo8TPsQsGoYirGPoDh-21" style="edgeStyle=orthogonalEdgeStyle;rounded=0;orthogonalLoop=1;jettySize=auto;html=1;entryX=0.949;entryY=0.264;entryDx=0;entryDy=0;entryPerimeter=0;" parent="1" source="M6Eo8TPsQsGoYirGPoDh-6" target="M6Eo8TPsQsGoYirGPoDh-14" edge="1">
          <mxGeometry relative="1" as="geometry" />
        </mxCell>
        <mxCell id="M6Eo8TPsQsGoYirGPoDh-6" value="медичний консультант" style="shape=umlActor;verticalLabelPosition=bottom;verticalAlign=top;html=1;outlineConnect=0;" parent="1" vertex="1">
          <mxGeometry x="780" y="585" width="30" height="60" as="geometry" />
        </mxCell>
        <mxCell id="M6Eo8TPsQsGoYirGPoDh-7" value="" style="endArrow=classic;html=1;rounded=0;exitX=0.764;exitY=0.019;exitDx=0;exitDy=0;entryX=0.563;entryY=1.007;entryDx=0;entryDy=0;entryPerimeter=0;dashed=1;exitPerimeter=0;" parent="1" source="iGe3nFgzR7R-XXRQcmDe-23" target="iGe3nFgzR7R-XXRQcmDe-8" edge="1">
          <mxGeometry width="50" height="50" relative="1" as="geometry">
            <mxPoint x="582" y="479" as="sourcePoint" />
            <mxPoint x="489" y="492" as="targetPoint" />
            <Array as="points" />
          </mxGeometry>
        </mxCell>
        <mxCell id="M6Eo8TPsQsGoYirGPoDh-14" value="отримати запит на пораду щодо&amp;nbsp;&lt;br&gt;здоров&#39;я та дати відповідь" style="ellipse;whiteSpace=wrap;html=1;" parent="1" vertex="1">
          <mxGeometry x="510" y="600" width="200" height="55" as="geometry" />
        </mxCell>
        <mxCell id="M6Eo8TPsQsGoYirGPoDh-15" value="отримати запит на пораду щодо танців та дати відповідь" style="ellipse;whiteSpace=wrap;html=1;" parent="1" vertex="1">
          <mxGeometry x="530" y="300" width="190" height="80" as="geometry" />
        </mxCell>
        <mxCell id="M6Eo8TPsQsGoYirGPoDh-18" value="extend" style="text;html=1;align=center;verticalAlign=middle;resizable=0;points=[];autosize=1;strokeColor=none;fillColor=none;rotation=15;" parent="1" vertex="1">
          <mxGeometry x="480" y="300" width="60" height="30" as="geometry" />
        </mxCell>
        <mxCell id="M6Eo8TPsQsGoYirGPoDh-22" value="extend" style="text;html=1;align=center;verticalAlign=middle;resizable=0;points=[];autosize=1;strokeColor=none;fillColor=none;rotation=0;" parent="1" vertex="1">
          <mxGeometry x="470" y="600" width="60" height="30" as="geometry" />
        </mxCell>
        <mxCell id="M6Eo8TPsQsGoYirGPoDh-24" value="" style="endArrow=classic;html=1;rounded=0;exitX=0;exitY=0.5;exitDx=0;exitDy=0;entryX=1;entryY=0.5;entryDx=0;entryDy=0;dashed=1;" parent="1" source="M6Eo8TPsQsGoYirGPoDh-15" target="iGe3nFgzR7R-XXRQcmDe-17" edge="1">
          <mxGeometry width="50" height="50" relative="1" as="geometry">
            <mxPoint x="500" y="345" as="sourcePoint" />
            <mxPoint x="550" y="360" as="targetPoint" />
            <Array as="points" />
          </mxGeometry>
        </mxCell>
        <mxCell id="M6Eo8TPsQsGoYirGPoDh-25" value="" style="endArrow=classic;html=1;rounded=0;exitX=0;exitY=0.5;exitDx=0;exitDy=0;entryX=1;entryY=0.5;entryDx=0;entryDy=0;dashed=1;" parent="1" source="M6Eo8TPsQsGoYirGPoDh-14" target="iGe3nFgzR7R-XXRQcmDe-23" edge="1">
          <mxGeometry width="50" height="50" relative="1" as="geometry">
            <mxPoint x="510" y="355" as="sourcePoint" />
            <mxPoint x="560" y="370" as="targetPoint" />
            <Array as="points" />
          </mxGeometry>
        </mxCell>
      </root>
    </mxGraphModel>
  </diagram>
</mxfile>
